<?xml version="1.0" encoding="UTF-8" standalone="no"?>
<svg width="140px" height="56px" viewBox="0 0 140 56" version="1.1" xmlns="http://www.w3.org/2000/svg" xmlns:xlink="http://www.w3.org/1999/xlink">
    <!-- Generator: Sketch 39.1 (31720) - http://www.bohemiancoding.com/sketch -->
    <title>paw-transparent-140</title>
    <desc>Created with Sketch.</desc>
    <defs></defs>
    <g id="Page-1" stroke="none" stroke-width="1" fill="none" fill-rule="evenodd">
        <g id="paw-transparent-140" fill="#00ACFF">
            <path d="M128.601133,40.3003173 C128.114749,38.396369 127.040985,38.6360738 126.330137,38.7218303 C126.050137,38.7556679 125.808365,38.7851144 125.669915,38.7112399 C125.144269,38.287107 123.614601,34.7238229 122.497185,31.0254465 C121.512277,27.7661845 123.826926,24.8473653 123.826926,19.5221993 C123.826926,12.2463321 119.495708,7.87507749 117.3301,6.14419188 C117.564897,8.51980074 117.464934,10.0034908 116.937996,11.8929742 C116.937996,11.8929742 115.835303,9.06662731 114.034675,8.02411808 C114.548439,13.944155 112.672387,15.1574022 107.582018,16.206369 C109.489841,17.6327159 111.33438,18.0710554 114.911871,18.0710554 C121.971022,18.0710554 124.678033,23.7126421 119.087849,30.7498376 C120.798328,34.7052251 123.925856,39.8906494 124.297295,40.2799114 C125.1639,41.1875867 127.132683,41.1431587 128.380026,40.7019779 C128.551797,40.6412768 128.644011,40.4674391 128.601133,40.3003173" id="Fill-1"></path>
            <path d="M108.832565,40.8248007 C110.627251,40.6135092 112.668616,40.3732878 114.761642,40.3960185 C111.906107,31.2131033 115.187841,29.9125498 117.38703,26.262476 C120.365775,21.3193395 117.065185,19.7723653 114.943487,19.7723653 C113.67393,29.1908524 99.3507934,23.2230295 101.969207,40.0168303 C102.717768,41.4671993 105.064963,41.2688229 108.832565,40.8248007" id="Fill-3"></path>
            <path d="M109.009941,42.5251033 C105.424959,42.9476863 102.298723,43.3160258 100.879092,41.3291624 C97.9667306,41.4975756 95.6626716,43.4167638 95.6626716,45.7515609 C95.6626716,48.2607122 98.2420812,50.3806015 101.295476,50.3806015 C103.464701,50.3806015 106.034037,50.0125203 108.754221,49.6232583 C114.525993,48.7969483 120.999572,47.8701587 126.918576,49.8025203 C122.69972,40.9120037 115.145144,41.8023727 109.009941,42.5251033" id="Fill-5"></path>
            <path d="M32.1096716,21.6041956 C32.1096716,26.0810959 28.2790443,29.0887712 22.5775314,29.0887712 L14.202845,29.0887712 L14.202845,14.1643063 L22.8443579,14.1643063 C28.6460923,14.1643063 32.1096716,16.9123875 32.1096716,21.5150812 L32.1096716,21.6041956 Z M23.0225867,11.6838266 L11.5443948,11.6838266 L11.5443948,43.1871845 L14.202845,43.1871845 L14.202845,31.5689926 L22.4439889,31.5689926 C25.805797,31.5689926 28.8659077,30.6657085 31.0601882,29.0254871 C33.4861661,27.212203 34.7681218,24.5997306 34.7681218,21.4706531 L34.7681218,21.3815387 C34.7681218,15.4904317 30.157679,11.6838266 23.0225867,11.6838266 L23.0225867,11.6838266 Z" id="Fill-7"></path>
            <polygon id="Fill-9" points="84.2187565 39.7258782 77.5256199 20.1684982 77.516321 20.1413764 75.4741808 20.1413764 68.7717454 39.7258782 62.0396052 20.1413764 59.2238487 20.1413764 67.6313395 43.2519668 67.6724096 43.3651033 69.7842915 43.3651033 76.472262 24.2623358 83.0765424 43.2496421 83.1168376 43.3651033 85.2289779 43.3651033 93.6780554 20.1413764 90.951155 20.1413764"></polygon>
            <path d="M54.605786,40.7009705 C52.7633137,41.1669483 50.2601033,41.6863948 47.0767823,41.6863948 C42.5699188,41.6863948 39.7701771,39.7225203 39.7701771,36.5614133 L39.7701771,36.2046974 C39.7701771,33.0433321 42.5699188,31.0794576 47.0767823,31.0794576 C50.2601033,31.0794576 52.7633137,31.5989041 54.605786,32.0648819 L54.605786,40.7009705 Z M47.3882952,19.7854354 C43.9730185,19.7854354 41.3623542,20.7835166 39.2589963,21.7599004 L40.2108413,23.9828524 C42.6241624,22.7504908 44.8626125,22.1765424 47.2544945,22.1765424 C51.9664502,22.1765424 54.5613579,24.5815978 54.5613579,28.9487196 L54.5613579,29.7055461 C52.6793653,29.2160627 50.4706199,28.7769483 47.2103247,28.7769483 C40.9810996,28.7769483 37.1119852,31.6743284 37.1119852,36.3384982 L37.1119852,36.4273542 C37.1119852,41.091524 40.9810996,43.9889041 47.2103247,43.9889041 C52.3887749,43.9889041 57.041321,42.3954354 57.041321,42.3954354 L57.041321,28.8598635 C57.041321,26.0559889 56.2677048,23.9195683 54.6763026,22.3286827 C53.0125756,20.6649557 50.4925756,19.7854354 47.3882952,19.7854354 L47.3882952,19.7854354 Z" id="Fill-11"></path>
        </g>
    </g>
</svg>